# MagicaVoxel @ Ephtracy

# group
o 

# material
mtllib ErdBlockBearbeitet.mtl
usemtl palette

# normals
vn -1 0 0
vn 1 0 0
vn 0 0 1
vn 0 0 -1
vn 0 -1 0
vn 0 1 0

# texcoords
vt 0.970703 0.5
vt 0.974609 0.5
vt 0.978516 0.5

# verts
v -2 0 2
v -2 0 -2
v -2 4 2
v -2 4 -2
v 2 0 2
v 2 0 -2
v 2 4 2
v 2 4 -2
v -2 0 2
v -2 4 2
v -1.6 3.9 2
v -1.6 4 2
v -1.5 3.9 2
v -1.5 4 2
v -1.2 3.9 2
v -1.2 4 2
v -1.1 3.9 2
v -1.1 4 2
v -0.7 3.9 2
v -0.7 4 2
v -0.6 3.9 2
v -0.6 4 2
v -0.3 3.9 2
v -0.3 4 2
v -0.2 3.9 2
v -0.2 4 2
v 0.2 3.9 2
v 0.2 4 2
v 0.3 3.9 2
v 0.3 4 2
v 0.6 3.9 2
v 0.6 4 2
v 0.7 3.9 2
v 0.7 4 2
v 1.1 3.9 2
v 1.1 4 2
v 1.2 3.9 2
v 1.2 4 2
v 1.5 3.9 2
v 1.5 4 2
v 1.6 3.9 2
v 1.6 4 2
v 2 0 2
v 2 4 2
v -2 0 -2
v -2 4 -2
v -1.6 3.9 -2
v -1.6 4 -2
v -1.5 3.9 -2
v -1.5 4 -2
v -1.2 3.9 -2
v -1.2 4 -2
v -1.1 3.9 -2
v -1.1 4 -2
v -0.7 3.9 -2
v -0.7 4 -2
v -0.6 3.9 -2
v -0.6 4 -2
v -0.3 3.9 -2
v -0.3 4 -2
v -0.2 3.9 -2
v -0.2 4 -2
v 0.2 3.9 -2
v 0.2 4 -2
v 0.3 3.9 -2
v 0.3 4 -2
v 0.6 3.9 -2
v 0.6 4 -2
v 0.7 3.9 -2
v 0.7 4 -2
v 1.1 3.9 -2
v 1.1 4 -2
v 1.2 3.9 -2
v 1.2 4 -2
v 1.5 3.9 -2
v 1.5 4 -2
v 1.6 3.9 -2
v 1.6 4 -2
v 2 0 -2
v 2 4 -2
v -2 0 2
v 2 0 2
v -2 0 -2
v 2 0 -2
v -2 4 2
v -1.6 4 2
v -1.5 4 2
v -1.2 4 2
v -1.1 4 2
v -0.7 4 2
v -0.6 4 2
v -0.3 4 2
v -0.2 4 2
v 0.2 4 2
v 0.3 4 2
v 0.6 4 2
v 0.7 4 2
v 1.1 4 2
v 1.2 4 2
v 1.5 4 2
v 1.6 4 2
v 2 4 2
v -2 4 -2
v -1.6 4 -2
v -1.5 4 -2
v -1.2 4 -2
v -1.1 4 -2
v -0.7 4 -2
v -0.6 4 -2
v -0.3 4 -2
v -0.2 4 -2
v 0.2 4 -2
v 0.3 4 -2
v 0.6 4 -2
v 0.7 4 -2
v 1.1 4 -2
v 1.2 4 -2
v 1.5 4 -2
v 1.6 4 -2
v 2 4 -2

# faces
f 3/1/1 2/1/1 1/1/1
f 4/1/1 2/1/1 3/1/1
f 5/1/2 6/1/2 7/1/2
f 7/1/2 6/1/2 8/1/2
f 11/1/3 10/1/3 9/1/3
f 12/1/3 10/1/3 11/1/3
f 13/1/3 11/1/3 9/1/3
f 13/3/3 12/3/3 11/3/3
f 14/3/3 12/3/3 13/3/3
f 15/1/3 13/1/3 9/1/3
f 15/2/3 14/2/3 13/2/3
f 16/2/3 14/2/3 15/2/3
f 17/1/3 15/1/3 9/1/3
f 17/3/3 16/3/3 15/3/3
f 18/3/3 16/3/3 17/3/3
f 19/1/3 17/1/3 9/1/3
f 19/1/3 18/1/3 17/1/3
f 20/1/3 18/1/3 19/1/3
f 21/1/3 19/1/3 9/1/3
f 21/3/3 20/3/3 19/3/3
f 22/3/3 20/3/3 21/3/3
f 23/1/3 21/1/3 9/1/3
f 23/2/3 22/2/3 21/2/3
f 24/2/3 22/2/3 23/2/3
f 25/1/3 23/1/3 9/1/3
f 25/3/3 24/3/3 23/3/3
f 26/3/3 24/3/3 25/3/3
f 27/1/3 25/1/3 9/1/3
f 27/1/3 26/1/3 25/1/3
f 28/1/3 26/1/3 27/1/3
f 29/1/3 27/1/3 9/1/3
f 29/3/3 28/3/3 27/3/3
f 30/3/3 28/3/3 29/3/3
f 31/1/3 29/1/3 9/1/3
f 31/2/3 30/2/3 29/2/3
f 32/2/3 30/2/3 31/2/3
f 33/1/3 31/1/3 9/1/3
f 33/3/3 32/3/3 31/3/3
f 34/3/3 32/3/3 33/3/3
f 35/1/3 33/1/3 9/1/3
f 35/1/3 34/1/3 33/1/3
f 36/1/3 34/1/3 35/1/3
f 37/1/3 35/1/3 9/1/3
f 37/3/3 36/3/3 35/3/3
f 38/3/3 36/3/3 37/3/3
f 39/1/3 37/1/3 9/1/3
f 39/2/3 38/2/3 37/2/3
f 40/2/3 38/2/3 39/2/3
f 41/1/3 39/1/3 9/1/3
f 41/3/3 40/3/3 39/3/3
f 42/3/3 40/3/3 41/3/3
f 43/1/3 41/1/3 9/1/3
f 43/1/3 42/1/3 41/1/3
f 44/1/3 42/1/3 43/1/3
f 45/1/4 46/1/4 47/1/4
f 47/1/4 46/1/4 48/1/4
f 45/1/4 47/1/4 49/1/4
f 47/3/4 48/3/4 49/3/4
f 49/3/4 48/3/4 50/3/4
f 45/1/4 49/1/4 51/1/4
f 49/2/4 50/2/4 51/2/4
f 51/2/4 50/2/4 52/2/4
f 45/1/4 51/1/4 53/1/4
f 51/3/4 52/3/4 53/3/4
f 53/3/4 52/3/4 54/3/4
f 45/1/4 53/1/4 55/1/4
f 53/1/4 54/1/4 55/1/4
f 55/1/4 54/1/4 56/1/4
f 45/1/4 55/1/4 57/1/4
f 55/3/4 56/3/4 57/3/4
f 57/3/4 56/3/4 58/3/4
f 45/1/4 57/1/4 59/1/4
f 57/2/4 58/2/4 59/2/4
f 59/2/4 58/2/4 60/2/4
f 45/1/4 59/1/4 61/1/4
f 59/3/4 60/3/4 61/3/4
f 61/3/4 60/3/4 62/3/4
f 45/1/4 61/1/4 63/1/4
f 61/1/4 62/1/4 63/1/4
f 63/1/4 62/1/4 64/1/4
f 45/1/4 63/1/4 65/1/4
f 63/3/4 64/3/4 65/3/4
f 65/3/4 64/3/4 66/3/4
f 45/1/4 65/1/4 67/1/4
f 65/2/4 66/2/4 67/2/4
f 67/2/4 66/2/4 68/2/4
f 45/1/4 67/1/4 69/1/4
f 67/3/4 68/3/4 69/3/4
f 69/3/4 68/3/4 70/3/4
f 45/1/4 69/1/4 71/1/4
f 69/1/4 70/1/4 71/1/4
f 71/1/4 70/1/4 72/1/4
f 45/1/4 71/1/4 73/1/4
f 71/3/4 72/3/4 73/3/4
f 73/3/4 72/3/4 74/3/4
f 45/1/4 73/1/4 75/1/4
f 73/2/4 74/2/4 75/2/4
f 75/2/4 74/2/4 76/2/4
f 45/1/4 75/1/4 77/1/4
f 75/3/4 76/3/4 77/3/4
f 77/3/4 76/3/4 78/3/4
f 45/1/4 77/1/4 79/1/4
f 77/1/4 78/1/4 79/1/4
f 79/1/4 78/1/4 80/1/4
f 83/1/5 82/1/5 81/1/5
f 84/1/5 82/1/5 83/1/5
f 85/1/6 86/1/6 103/1/6
f 86/3/6 87/3/6 104/3/6
f 103/1/6 86/1/6 104/1/6
f 87/2/6 88/2/6 105/2/6
f 104/3/6 87/3/6 105/3/6
f 88/3/6 89/3/6 106/3/6
f 105/2/6 88/2/6 106/2/6
f 89/1/6 90/1/6 107/1/6
f 106/3/6 89/3/6 107/3/6
f 90/3/6 91/3/6 108/3/6
f 107/1/6 90/1/6 108/1/6
f 91/2/6 92/2/6 109/2/6
f 108/3/6 91/3/6 109/3/6
f 92/3/6 93/3/6 110/3/6
f 109/2/6 92/2/6 110/2/6
f 93/1/6 94/1/6 111/1/6
f 110/3/6 93/3/6 111/3/6
f 94/3/6 95/3/6 112/3/6
f 111/1/6 94/1/6 112/1/6
f 95/2/6 96/2/6 113/2/6
f 112/3/6 95/3/6 113/3/6
f 96/3/6 97/3/6 114/3/6
f 113/2/6 96/2/6 114/2/6
f 97/1/6 98/1/6 115/1/6
f 114/3/6 97/3/6 115/3/6
f 98/3/6 99/3/6 116/3/6
f 115/1/6 98/1/6 116/1/6
f 99/2/6 100/2/6 117/2/6
f 116/3/6 99/3/6 117/3/6
f 100/3/6 101/3/6 118/3/6
f 117/2/6 100/2/6 118/2/6
f 101/1/6 102/1/6 119/1/6
f 118/3/6 101/3/6 119/3/6
f 119/1/6 102/1/6 120/1/6
